<svg xmlns="http://www.w3.org/2000/svg" width="1600" height="720" viewBox="0 0 1600 720" role="img" aria-label="FieldMark product banner">
  <defs>
    <filter id="softShadow" x="-20%" y="-20%" width="140%" height="140%">
      <feDropShadow dx="0" dy="18" stdDeviation="26" flood-color="#182433" flood-opacity=".18"/>
    </filter>
  </defs>
  <rect width="1600" height="720" fill="#f3f6f9"/>
  <rect x="42" y="42" width="1516" height="636" rx="28" fill="#ffffff" stroke="#d7dee6"/>
  <g transform="translate(92 82)">
    <rect width="84" height="84" rx="19" fill="#07111f"/>
    <path d="M23 18h31c4.4 0 8 3.6 8 8v31c0 4.4-3.6 8-8 8H23V18Z" fill="#f8fbff"/>
    <path d="M31 28h23M31 39h17M31 51h20" stroke="#8794a3" stroke-width="4" stroke-linecap="round"/>
    <path d="M20 18h10v47H20c-4.4 0-8-3.6-8-8V26c0-4.4 3.6-8 8-8Z" fill="#1677c8"/>
    <path d="M28 26h28v13H28zM28 49h33v12H28z" fill="#dff4ff" stroke="#18a7cc" stroke-width="2"/>
    <text x="108" y="42" fill="#07111f" font-family="Inter, Segoe UI, Arial, sans-serif" font-size="44" font-weight="780" letter-spacing="-1">FieldMark</text>
    <text x="110" y="75" fill="#506070" font-family="Inter, Segoe UI, Arial, sans-serif" font-size="20">Private invoice extraction with source evidence.</text>
  </g>
  <g transform="translate(92 222)" font-family="Inter, Segoe UI, Arial, sans-serif">
    <text x="0" y="0" fill="#07111f" font-size="58" font-weight="820" letter-spacing="-1.4">Private documents.</text>
    <text x="0" y="74" fill="#07111f" font-size="58" font-weight="820" letter-spacing="-1.4">Validated records.</text>
    <text x="2" y="132" fill="#405161" font-size="23">Local evidence, scan quality, schema, and math before export.</text>
    <g transform="translate(0 194)">
      <rect width="148" height="42" rx="8" fill="#07111f"/>
      <text x="22" y="28" fill="#ffffff" font-size="16" font-weight="760">Open bench</text>
      <rect x="164" width="180" height="42" rx="8" fill="#ffffff" stroke="#cdd6df"/>
      <text x="187" y="28" fill="#07111f" font-size="16" font-weight="680">Run fixture suite</text>
    </g>
  </g>
  <g transform="translate(836 122)" filter="url(#softShadow)">
    <rect width="700" height="482" rx="16" fill="#ffffff" stroke="#ccd5df"/>
    <rect width="700" height="54" rx="16" fill="#ffffff"/>
    <line x1="0" y1="54" x2="700" y2="54" stroke="#d7dee6"/>
    <rect x="18" y="70" width="142" height="392" fill="#f6f8fa" stroke="#d7dee6"/>
    <rect x="34" y="96" width="94" height="92" fill="#dff4ff" stroke="#18a7cc"/>
    <rect x="34" y="214" width="94" height="92" fill="#ffffff" stroke="#d7dee6"/>
    <rect x="34" y="332" width="94" height="92" fill="#ffffff" stroke="#d7dee6"/>
    <rect x="190" y="86" width="310" height="360" fill="#ffffff" stroke="#d7dee6"/>
    <text x="224" y="136" fill="#07111f" font-family="Inter, Segoe UI, Arial, sans-serif" font-size="18" font-weight="780">TAX INVOICE</text>
    <rect x="224" y="166" width="238" height="34" fill="#dff4ff" stroke="#18a7cc"/>
    <rect x="224" y="232" width="238" height="108" fill="none" stroke="#aeb8c3"/>
    <rect x="224" y="354" width="238" height="46" fill="#fff2ef" stroke="#bf3c2f"/>
    <rect x="522" y="70" width="154" height="392" fill="#ffffff" stroke="#d7dee6"/>
    <text x="540" y="104" fill="#07111f" font-family="Inter, Segoe UI, Arial, sans-serif" font-size="15" font-weight="760">Extracted fields</text>
    <g fill="#dff4ff" stroke="#18a7cc">
      <rect x="540" y="128" width="118" height="24" rx="4"/>
      <rect x="540" y="164" width="118" height="24" rx="4"/>
      <rect x="540" y="200" width="118" height="24" rx="4"/>
    </g>
    <rect x="540" y="250" width="118" height="82" rx="7" fill="#fff2ef" stroke="#e4b3aa"/>
    <text x="552" y="280" fill="#a9362f" font-family="Inter, Segoe UI, Arial, sans-serif" font-size="13" font-weight="760">Total mismatch</text>
    <rect x="540" y="356" width="118" height="40" rx="7" fill="#07111f"/>
    <text x="561" y="382" fill="#ffffff" font-family="Inter, Segoe UI, Arial, sans-serif" font-size="13" font-weight="760">Review</text>
  </g>
</svg>
