<?xml version="1.0" encoding="UTF-8"?>
<svg xmlns="http://www.w3.org/2000/svg" width="1240" height="1754" viewBox="0 0 1240 1754">
  <defs>
    <filter id="blur"><feGaussianBlur stdDeviation="1.6"/></filter>
    <filter id="paperNoise">
      <feTurbulence type="fractalNoise" baseFrequency="0.95" numOctaves="2" stitchTiles="stitch"/>
      <feColorMatrix type="saturate" values="0"/>
      <feComponentTransfer><feFuncA type="table" tableValues="0 0.05"/></feComponentTransfer>
    </filter>
  </defs>
  <rect width="1240" height="1754" fill="#eef2f6"/>
  <g filter="url(#blur)">
    <rect x="86" y="74" width="1068" height="1606" rx="10" fill="#ffffff" stroke="#d3d9e1"/>
    <rect x="86" y="74" width="1068" height="1606" fill="#000" filter="url(#paperNoise)" opacity="0.35"/>
    <ellipse cx="230" cy="380" rx="260" ry="430" fill="#111827" opacity="0.10"/>
    
    <g  font-family="Inter, Arial, sans-serif" fill="#111827">
      <text x="160" y="190" font-size="30" font-weight="700">ACME SUPPLIES PVT. LTD.</text>
      <text x="160" y="230" font-size="24">123, Industrial Area, Phase 2</text>
      <text x="160" y="264" font-size="24">Pune, Maharashtra 411019</text>
      <text x="160" y="304" font-size="24">GSTIN: 27AABCA1234B1Z5</text>

      <text x="780" y="198" font-size="42" font-weight="800">TAX INVOICE</text>
      <rect x="760" y="240" width="300" height="118" fill="none" stroke="#8b98a5" stroke-width="2"/>
      <line x1="760" y1="279" x2="1060" y2="279" stroke="#8b98a5" stroke-width="2"/>
      <line x1="760" y1="318" x2="1060" y2="318" stroke="#8b98a5" stroke-width="2"/>
      <line x1="912" y1="240" x2="912" y2="358" stroke="#8b98a5" stroke-width="2"/>
      <text x="780" y="267" font-size="20">Invoice No.</text>
      <text x="930" y="267" font-size="20" font-weight="700">FM-1003</text>
      <text x="780" y="306" font-size="20">Invoice Date</text>
      <text x="930" y="306" font-size="20" font-weight="700">02 Jul 2026</text>
      <text x="780" y="345" font-size="20">Due Date</text>
      <text x="930" y="345" font-size="20" font-weight="700">16 Jul 2026</text>

      <text x="160" y="432" font-size="26" font-weight="700">Bill To</text>
      <text x="160" y="472" font-size="24" font-weight="700">BrightBuild Constructions</text>
      <text x="160" y="506" font-size="24">45, Residency Road</text>
      <text x="160" y="540" font-size="24">Bengaluru, Karnataka 560025</text>
      <text x="160" y="578" font-size="24">GSTIN: 29ABCDE1234F1Z5</text>

      <rect x="160" y="680" width="900" height="320" fill="none" stroke="#8b98a5" stroke-width="2"/>
      <line x1="160" y1="732" x2="1060" y2="732" stroke="#8b98a5" stroke-width="2"/>
      <line x1="238" y1="680" x2="238" y2="1000" stroke="#8b98a5" stroke-width="2"/>
      <line x1="640" y1="680" x2="640" y2="1000" stroke="#8b98a5" stroke-width="2"/>
      <line x1="755" y1="680" x2="755" y2="1000" stroke="#8b98a5" stroke-width="2"/>
      <line x1="840" y1="680" x2="840" y2="1000" stroke="#8b98a5" stroke-width="2"/>
      <line x1="932" y1="680" x2="932" y2="1000" stroke="#8b98a5" stroke-width="2"/>
      <text x="184" y="715" font-size="20" font-weight="700">#</text>
      <text x="260" y="715" font-size="20" font-weight="700">Description</text>
      <text x="660" y="715" font-size="20" font-weight="700">HSN/SAC</text>
      <text x="780" y="715" font-size="20" font-weight="700">Qty</text>
      <text x="860" y="715" font-size="20" font-weight="700">Rate</text>
      <text x="956" y="715" font-size="20" font-weight="700">Amount</text>
      
      <line x1="160" y1="766" x2="1060" y2="766" stroke="#aab4c0" stroke-width="1"/>
      <text x="184" y="786" font-size="20">1</text>
      <text x="260" y="786" font-size="20">Steel Channel 25mm</text>
      <text x="660" y="786" font-size="20">72166100</text>
      <text x="800" y="786" font-size="20" text-anchor="end">20</text>
      <text x="908" y="786" font-size="20" text-anchor="end">120.00</text>
      <text x="1030" y="786" font-size="20" text-anchor="end">2,400.00</text>
      
      <line x1="160" y1="820" x2="1060" y2="820" stroke="#aab4c0" stroke-width="1"/>
      <text x="184" y="840" font-size="20">2</text>
      <text x="260" y="840" font-size="20">Hex Bolt M12</text>
      <text x="660" y="840" font-size="20">73181500</text>
      <text x="800" y="840" font-size="20" text-anchor="end">100</text>
      <text x="908" y="840" font-size="20" text-anchor="end">8.00</text>
      <text x="1030" y="840" font-size="20" text-anchor="end">800.00</text>
      
      <line x1="160" y1="874" x2="1060" y2="874" stroke="#aab4c0" stroke-width="1"/>
      <text x="184" y="894" font-size="20">3</text>
      <text x="260" y="894" font-size="20">Washer M12</text>
      <text x="660" y="894" font-size="20">73182200</text>
      <text x="800" y="894" font-size="20" text-anchor="end">100</text>
      <text x="908" y="894" font-size="20" text-anchor="end">4.00</text>
      <text x="1030" y="894" font-size="20" text-anchor="end">400.00</text>
      
      <line x1="160" y1="928" x2="1060" y2="928" stroke="#aab4c0" stroke-width="1"/>
      <text x="184" y="948" font-size="20">4</text>
      <text x="260" y="948" font-size="20">Site delivery kit</text>
      <text x="660" y="948" font-size="20">996511</text>
      <text x="800" y="948" font-size="20" text-anchor="end">1</text>
      <text x="908" y="948" font-size="20" text-anchor="end">640.00</text>
      <text x="1030" y="948" font-size="20" text-anchor="end">640.00</text>

      <rect x="160" y="1080" width="900" height="270" fill="none" stroke="#8b98a5" stroke-width="2"/>
      <line x1="740" y1="1080" x2="740" y2="1350" stroke="#8b98a5" stroke-width="2"/>
      <text x="184" y="1130" font-size="24" font-weight="700">Amount in words</text>
      <text x="184" y="1172" font-size="24">Four Thousand Eight Hundred Twenty Only</text>
      
      <text x="762" y="1120" font-size="24">Subtotal</text>
      <text x="990" y="1120" font-size="24" text-anchor="end">9,100.00</text>
      
      <text x="762" y="1172" font-size="24">Tax total</text>
      <text x="990" y="1172" font-size="24" text-anchor="end">910.00</text>
      
      <text x="762" y="1224" font-size="24">Shipping</text>
      <text x="990" y="1224" font-size="24" text-anchor="end">160.00</text>
      
      <text x="762" y="1276" font-size="24">Discount</text>
      <text x="990" y="1276" font-size="24" text-anchor="end">0.00</text>
      <text x="762" y="1328" font-size="24" font-weight="800">Total</text>
      <text x="990" y="1328" font-size="24" font-weight="800" text-anchor="end">10,170.00</text>
      

      <text x="160" y="1442" font-size="24" font-weight="700">Terms &amp; Conditions</text>
      <text x="160" y="1482" font-size="24">1. Goods once sold will not be taken back.</text>
      <text x="160" y="1520" font-size="24">2. Interest @ 18% p.a. will be charged on overdue payments.</text>
    </g>
  </g>
</svg>
